<?xml version="1.0" encoding="UTF-8" standalone="no"?><svg xmlns="http://www.w3.org/2000/svg" xmlns:xlink="http://www.w3.org/1999/xlink" clip-rule="evenodd" stroke-miterlimit="10" viewBox="0 0 1024 768"><desc>SVG generated by Keynote</desc><defs><linearGradient id="gradSh1.0" x1="0.0" y1="0.0" x2="1.0" y2="0.0" gradientUnits="userSpaceOnUse" gradientTransform="matrix(-382.98, 0.00, 0.00, 17.00, 500.0, 601.5)"><stop offset="0.00000" stop-color="#000000"></stop><stop offset="0.00220" stop-color="#010101"></stop><stop offset="0.00733" stop-color="#020202"></stop><stop offset="0.01393" stop-color="#040404"></stop><stop offset="0.01906" stop-color="#050505"></stop><stop offset="0.03006" stop-color="#080808"></stop><stop offset="0.03446" stop-color="#090909"></stop><stop offset="0.06085" stop-color="#101010"></stop><stop offset="0.06598" stop-color="#111111"></stop><stop offset="0.12390" stop-color="#202020"></stop><stop offset="0.12830" stop-color="#212121"></stop><stop offset="0.24927" stop-color="#404040"></stop><stop offset="0.25440" stop-color="#414141"></stop><stop offset="0.50000" stop-color="#807F80"></stop><stop offset="0.50073" stop-color="#808080"></stop><stop offset="0.50513" stop-color="#818181"></stop><stop offset="1.00000" stop-color="#FFFFFF"></stop></linearGradient><linearGradient id="gradSh1.1" x1="0.0" y1="0.0" x2="1.0" y2="0.0" gradientUnits="userSpaceOnUse" gradientTransform="matrix(382.98, 0.00, 0.00, -17.00, 524.0, 601.5)"><stop offset="0.00000" stop-color="#000000"></stop><stop offset="0.00220" stop-color="#010101"></stop><stop offset="0.00733" stop-color="#020202"></stop><stop offset="0.01393" stop-color="#040404"></stop><stop offset="0.01906" stop-color="#050505"></stop><stop offset="0.03006" stop-color="#080808"></stop><stop offset="0.03446" stop-color="#090909"></stop><stop offset="0.06085" stop-color="#101010"></stop><stop offset="0.06598" stop-color="#111111"></stop><stop offset="0.12390" stop-color="#202020"></stop><stop offset="0.12830" stop-color="#212121"></stop><stop offset="0.24927" stop-color="#404040"></stop><stop offset="0.25440" stop-color="#414141"></stop><stop offset="0.50000" stop-color="#807F80"></stop><stop offset="0.50073" stop-color="#808080"></stop><stop offset="0.50513" stop-color="#818181"></stop><stop offset="1.00000" stop-color="#FFFFFF"></stop></linearGradient></defs><g transform="matrix(1.00, 0.00, -0.00, -1.00, 0.0, 768.0)"><g><clipPath id="clip0x7fcbe4ff8300"><path d="M 0.0 768.0 L 1024.0 768.0 L 1024.0 0.0 L 0.0 0.0 Z M 0.0 768.0 "></path></clipPath><g clip-path="url(#clip0x7fcbe4ff8300)"><image xlink:href="9A03966AE6A8701922CD4C9948CDCB25.jpeg" width="2048.00" height="1536.00" transform="matrix(0.50, 0.00, -0.00, -0.50, 0.0, 768.0)"></image></g></g><g><clipPath id="clip0x7fcbe5048c70"><path d="M 417.6 739.9 L 605.9 739.9 L 605.9 462.6 L 417.6 462.6 Z M 417.6 739.9 "></path></clipPath><g clip-path="url(#clip0x7fcbe5048c70)"><g><clipPath id="clip0x7fcbe50493f0"><path d="M 500.0 598.0 L 524.0 598.0 L 524.0 605.0 L 500.0 605.0 Z M 500.0 598.0 "></path></clipPath><g clip-path="url(#clip0x7fcbe50493f0)"><path d="M 523.7 601.8 C 523.3 603.8 521.3 604.5 519.7 604.1 C 518.9 603.9 518.2 603.4 517.5 602.9 C 517.4 602.8 517.3 602.7 517.2 602.6 C 517.1 602.5 517.2 602.5 517.3 602.3 C 517.4 602.2 517.5 602.1 517.6 602.0 C 517.7 601.8 517.9 601.6 518.0 601.4 C 518.8 600.2 519.8 598.7 521.3 598.7 C 522.1 598.7 522.9 599.1 523.3 599.9 C 523.6 600.5 523.7 601.1 523.7 601.8 C 523.6 601.9 523.7 601.8 523.7 601.8 M 513.0 601.1 C 513.6 600.3 514.4 599.3 515.3 598.9 C 516.3 598.4 517.3 598.8 518.2 599.4 C 517.1 600.3 516.3 601.6 515.4 602.6 C 514.8 603.3 514.3 603.9 513.5 604.1 C 512.6 604.5 511.7 604.2 510.9 603.7 C 511.6 602.9 512.3 602.0 513.0 601.1 C 513.7 600.2 513.0 601.1 513.0 601.1 M 508.0 601.1 C 508.3 600.7 509.3 599.5 510.1 599.0 C 511.1 598.5 512.2 598.6 513.0 599.2 C 512.0 600.2 511.2 601.4 510.3 602.6 C 509.8 603.2 509.3 603.9 508.5 604.2 C 507.6 604.5 506.7 604.2 505.9 603.6 C 506.7 602.9 507.4 602.1 508.0 601.1 C 508.6 600.3 508.0 601.1 508.0 601.1 M 506.0 601.9 C 505.1 603.2 503.8 604.7 502.2 604.3 C 500.8 603.9 500.0 602.1 500.6 600.6 C 501.4 598.8 503.6 598.5 505.1 599.1 C 505.5 599.3 505.9 599.6 506.3 599.9 C 506.5 600.0 506.6 600.1 506.8 600.3 C 506.9 600.5 507.0 600.5 506.8 600.7 C 506.5 601.1 506.3 601.4 506.0 601.9 C 505.9 602.0 506.0 601.9 506.0 601.9 M 524.0 601.2 C 523.8 599.4 522.4 598.0 520.7 598.1 C 519.9 598.1 519.2 598.4 518.6 599.0 C 518.4 599.1 518.4 599.2 518.3 599.1 C 518.2 599.0 518.1 598.9 518.0 598.8 C 517.8 598.7 517.6 598.6 517.4 598.5 C 517.0 598.3 516.6 598.1 516.2 598.0 C 515.4 597.9 514.6 598.1 513.9 598.6 C 513.7 598.7 513.5 598.9 513.3 599.0 C 513.1 598.9 512.9 598.7 512.8 598.6 C 512.4 598.4 512.0 598.2 511.6 598.1 C 509.9 597.7 508.2 598.7 507.1 600.3 C 506.1 598.6 504.1 597.5 502.3 598.2 C 501.0 598.7 499.9 600.2 500.0 601.8 C 500.2 603.7 501.8 605.2 503.5 605.0 C 503.9 604.9 504.3 604.8 504.7 604.6 C 504.9 604.5 505.1 604.4 505.3 604.3 C 505.4 604.2 505.5 604.1 505.6 604.0 C 505.8 603.9 505.7 603.8 506.0 604.0 C 506.7 604.6 507.4 605.0 508.3 605.0 C 509.1 605.0 509.8 604.6 510.5 604.0 C 510.6 603.9 510.6 603.8 510.7 603.9 C 510.8 604.0 510.9 604.1 511.0 604.2 C 511.2 604.3 511.4 604.4 511.6 604.5 C 512.0 604.8 512.4 604.9 512.8 605.0 C 514.5 605.2 515.9 604.1 517.0 602.7 C 518.1 604.2 519.7 605.4 521.5 604.9 C 522.3 604.7 523.0 604.1 523.5 603.3 C 524.1 602.4 524.0 601.2 524.0 601.2 " fill="#1D1D1D"></path></g></g></g></g><g><clipPath id="clip0x7fcbe4fb2530"><path d="M 117.0 601.6 L 117.0 601.4 L 500.0 601.0 L 500.0 602.0 Z M 117.0 601.6 "></path></clipPath><g clip-path="url(#clip0x7fcbe4fb2530)"><g><clipPath id="clip0x7fcbe4fb1020"><path d="M 117.0 601.0 L 500.0 601.0 L 500.0 602.0 L 117.0 602.0 Z M 117.0 601.0 "></path></clipPath><g clip-path="url(#clip0x7fcbe4fb1020)"><path d="M 117.0 601.0 L 500.0 601.0 L 500.0 602.0 L 117.0 602.0 Z M 117.0 601.0 " fill="url(#gradSh1.0)"></path></g></g></g></g><g><clipPath id="clip0x7fcbe4f6e710"><path d="M 907.0 601.0 L 524.0 601.0 L 524.0 602.0 L 907.0 602.0 Z M 907.0 601.0 "></path></clipPath><g clip-path="url(#clip0x7fcbe4f6e710)"><g><clipPath id="clip0x7fcbe4f6ee90"><path d="M 907.0 602.0 L 524.0 602.0 L 524.0 601.0 L 907.0 601.0 Z M 907.0 602.0 "></path></clipPath><g clip-path="url(#clip0x7fcbe4f6ee90)"><g><clipPath id="clip0x7fcbe4f6f5a0"><path d="M 907.0 601.4 L 907.0 601.6 L 524.0 602.0 L 524.0 601.0 Z M 907.0 601.4 "></path></clipPath><g clip-path="url(#clip0x7fcbe4f6f5a0)"><path d="M 907.0 601.4 L 907.0 601.6 L 524.0 602.0 L 524.0 601.0 Z M 907.0 601.4 " fill="url(#gradSh1.1)"></path></g></g></g></g></g></g><g><clipPath id="clip0x7fcbe5132f80"><path d="M 93.0 510.0 L 931.0 510.0 L 931.0 85.0 L 93.0 85.0 Z M 93.0 510.0 "></path></clipPath><g clip-path="url(#clip0x7fcbe5132f80)"><image xlink:href="D58BBC3349F2E1ACBDE202C1783A27F2.jpeg" width="2458.00" height="1685.00" transform="matrix(0.36, 0.00, -0.00, -0.36, 93.0, 674.0)"></image></g></g><image xlink:href="23CB8E4438FD472651239C78C335810B.png" width="880.00" height="471.00" transform="matrix(1.00, 0.00, -0.00, 1.00, 71.0, 59.0)"></image><text xml:space="preserve" font-family="AcademyEngravedLetPlain,Academy Engraved LET" font-size="63.0" fill="#000000" transform="matrix(1.00, 0.00, -0.00, -1.00, 329.7, 643.5)">S</text><text xml:space="preserve" font-family="AcademyEngravedLetPlain,Academy Engraved LET" font-size="63.0" fill="#000000" transform="matrix(1.00, 0.00, -0.00, -1.00, 362.7, 643.5)">M</text><text xml:space="preserve" font-family="AcademyEngravedLetPlain,Academy Engraved LET" font-size="63.0" fill="#000000" transform="matrix(1.00, 0.00, -0.00, -1.00, 424.4, 643.5)">C</text><text xml:space="preserve" font-family="AcademyEngravedLetPlain,Academy Engraved LET" font-size="63.0" fill="#000000" transform="matrix(1.00, 0.00, -0.00, -1.00, 469.8, 643.5)"> </text><text xml:space="preserve" font-family="AcademyEngravedLetPlain,Academy Engraved LET" font-size="63.0" fill="#000000" transform="matrix(1.00, 0.00, -0.00, -1.00, 490.7, 643.5)">H</text><text xml:space="preserve" font-family="AcademyEngravedLetPlain,Academy Engraved LET" font-size="63.0" fill="#000000" transform="matrix(1.00, 0.00, -0.00, -1.00, 542.1, 643.5)">E</text><text xml:space="preserve" font-family="AcademyEngravedLetPlain,Academy Engraved LET" font-size="63.0" fill="#000000" transform="matrix(1.00, 0.00, -0.00, -1.00, 583.6, 643.5)">L</text><text xml:space="preserve" font-family="AcademyEngravedLetPlain,Academy Engraved LET" font-size="63.0" fill="#000000" transform="matrix(1.00, 0.00, -0.00, -1.00, 621.9, 643.5)">P</text><text xml:space="preserve" font-family="AcademyEngravedLetPlain,Academy Engraved LET" font-size="63.0" fill="#000000" transform="matrix(1.00, 0.00, -0.00, -1.00, 661.4, 643.5)">S</text><text xml:space="preserve" font-family="Avenir-Book,Avenir" font-size="31.3" fill="#B6482C" transform="matrix(1.00, 0.00, -0.00, -1.00, 434.0, 553.5)">F</text><text xml:space="preserve" font-family="Avenir-Book,Avenir" font-size="31.3" fill="#B6482C" transform="matrix(1.00, 0.00, -0.00, -1.00, 451.4, 553.5)">o</text><text xml:space="preserve" font-family="Avenir-Book,Avenir" font-size="31.3" fill="#B6482C" transform="matrix(1.00, 0.00, -0.00, -1.00, 470.0, 553.5)">s</text><text xml:space="preserve" font-family="Avenir-Book,Avenir" font-size="31.3" fill="#B6482C" transform="matrix(1.00, 0.00, -0.00, -1.00, 483.3, 553.5)">t</text><text xml:space="preserve" font-family="Avenir-Book,Avenir" font-size="31.3" fill="#B6482C" transform="matrix(1.00, 0.00, -0.00, -1.00, 493.7, 553.5)">e</text><text xml:space="preserve" font-family="Avenir-Book,Avenir" font-size="31.3" fill="#B6482C" transform="matrix(1.00, 0.00, -0.00, -1.00, 511.2, 553.5)">r</text><text xml:space="preserve" font-family="Avenir-Book,Avenir" font-size="31.3" fill="#B6482C" transform="matrix(1.00, 0.00, -0.00, -1.00, 521.6, 553.5)"> </text><text xml:space="preserve" font-family="Avenir-Book,Avenir" font-size="31.3" fill="#B6482C" transform="matrix(1.00, 0.00, -0.00, -1.00, 530.3, 553.5)">K</text><text xml:space="preserve" font-family="Avenir-Book,Avenir" font-size="31.3" fill="#B6482C" transform="matrix(1.00, 0.00, -0.00, -1.00, 550.0, 553.5)">i</text><text xml:space="preserve" font-family="Avenir-Book,Avenir" font-size="31.3" fill="#B6482C" transform="matrix(1.00, 0.00, -0.00, -1.00, 557.5, 553.5)">d</text><text xml:space="preserve" font-family="Avenir-Book,Avenir" font-size="31.3" fill="#B6482C" transform="matrix(1.00, 0.00, -0.00, -1.00, 576.6, 553.5)">s</text></g></svg>