<?xml version="1.0" encoding="UTF-8" standalone="no"?><svg xmlns="http://www.w3.org/2000/svg" xmlns:xlink="http://www.w3.org/1999/xlink" clip-rule="evenodd" stroke-miterlimit="10" viewBox="0 0 1024 768"><desc>SVG generated by Keynote</desc><defs></defs><g transform="matrix(1.00, 0.00, -0.00, -1.00, 0.0, 768.0)"><g><clipPath id="clip0x7fb37f296b00"><path d="M 0.0 768.0 L 1024.0 768.0 L 1024.0 0.0 L 0.0 0.0 Z M 0.0 768.0 "></path></clipPath><g clip-path="url(#clip0x7fb37f296b00)"><image xlink:href="../../94DFEC64-EBFF-49BB-9C58-FF65C573B335/assets/F5ECEE9833A3EFFBD874AEB7EE582BFA.jpeg" width="2048.00" height="1536.00" transform="matrix(0.50, 0.00, -0.00, -0.50, 0.0, 768.0)"></image></g></g><g opacity="0.75"><g><clipPath id="clip0x7fb37f29aee0"><path d="M 21.0 574.0 L 1003.0 574.0 L 1003.0 578.0 L 21.0 578.0 Z M 21.0 574.0 "></path></clipPath><g clip-path="url(#clip0x7fb37f29aee0)"><path d="M 0.5 0.5 L 978.5 0.5 L 978.5 0.5 L 0.5 0.5 Z M 0.0 0.0 " fill="none" stroke="#997F73" stroke-width="1.00" transform="matrix(1.00, 0.00, 0.00, -1.00, 23.0, 576.0)"></path></g></g></g><text xml:space="preserve" font-family="AcademyEngravedLetPlain,Academy Engraved LET" font-size="64.4" fill="#000000" transform="matrix(1.00, 0.00, -0.00, -1.00, 283.5, 638.2)">T</text><text xml:space="preserve" font-family="AcademyEngravedLetPlain,Academy Engraved LET" font-size="64.4" fill="#000000" transform="matrix(1.00, 0.00, -0.00, -1.00, 327.6, 638.2)">H</text><text xml:space="preserve" font-family="AcademyEngravedLetPlain,Academy Engraved LET" font-size="64.4" fill="#000000" transform="matrix(1.00, 0.00, -0.00, -1.00, 380.1, 638.2)">E</text><text xml:space="preserve" font-family="AcademyEngravedLetPlain,Academy Engraved LET" font-size="64.4" fill="#000000" transform="matrix(1.00, 0.00, -0.00, -1.00, 422.6, 638.2)"> </text><text xml:space="preserve" font-family="AcademyEngravedLetPlain,Academy Engraved LET" font-size="64.4" fill="#000000" transform="matrix(1.00, 0.00, -0.00, -1.00, 443.9, 638.2)">P</text><text xml:space="preserve" font-family="AcademyEngravedLetPlain,Academy Engraved LET" font-size="64.4" fill="#000000" transform="matrix(1.00, 0.00, -0.00, -1.00, 484.4, 638.2)">R</text><text xml:space="preserve" font-family="AcademyEngravedLetPlain,Academy Engraved LET" font-size="64.4" fill="#000000" transform="matrix(1.00, 0.00, -0.00, -1.00, 534.9, 638.2)">O</text><text xml:space="preserve" font-family="AcademyEngravedLetPlain,Academy Engraved LET" font-size="64.4" fill="#000000" transform="matrix(1.00, 0.00, -0.00, -1.00, 584.2, 638.2)">C</text><text xml:space="preserve" font-family="AcademyEngravedLetPlain,Academy Engraved LET" font-size="64.4" fill="#000000" transform="matrix(1.00, 0.00, -0.00, -1.00, 630.7, 638.2)">E</text><text xml:space="preserve" font-family="AcademyEngravedLetPlain,Academy Engraved LET" font-size="64.4" fill="#000000" transform="matrix(1.00, 0.00, -0.00, -1.00, 673.1, 638.2)">S</text><text xml:space="preserve" font-family="AcademyEngravedLetPlain,Academy Engraved LET" font-size="64.4" fill="#000000" transform="matrix(1.00, 0.00, -0.00, -1.00, 706.9, 638.2)">S</text><text xml:space="preserve" font-family="HoeflerText-Regular,Hoefler Text" font-size="40.0" fill="#56554A" transform="matrix(1.00, 0.00, -0.00, -1.00, 71.0, 476.2)">1</text><text xml:space="preserve" font-family="HoeflerText-Regular,Hoefler Text" font-size="40.0" fill="#56554A" transform="matrix(1.00, 0.00, -0.00, -1.00, 86.2, 476.2)">.</text><text xml:space="preserve" font-family="HoeflerText-Regular,Hoefler Text" font-size="40.0" fill="#56554A" transform="matrix(1.00, 0.00, -0.00, -1.00, 131.0, 476.2)">F</text><text xml:space="preserve" font-family="HoeflerText-Regular,Hoefler Text" font-size="40.0" fill="#56554A" transform="matrix(1.00, 0.00, -0.00, -1.00, 152.9, 476.2)">o</text><text xml:space="preserve" font-family="HoeflerText-Regular,Hoefler Text" font-size="40.0" fill="#56554A" transform="matrix(1.00, 0.00, -0.00, -1.00, 174.3, 476.2)">s</text><text xml:space="preserve" font-family="HoeflerText-Regular,Hoefler Text" font-size="40.0" fill="#56554A" transform="matrix(1.00, 0.00, -0.00, -1.00, 189.6, 476.2)">t</text><text xml:space="preserve" font-family="HoeflerText-Regular,Hoefler Text" font-size="40.0" fill="#56554A" transform="matrix(1.00, 0.00, -0.00, -1.00, 203.8, 476.2)">e</text><text xml:space="preserve" font-family="HoeflerText-Regular,Hoefler Text" font-size="40.0" fill="#56554A" transform="matrix(1.00, 0.00, -0.00, -1.00, 222.5, 476.2)">r</text><text xml:space="preserve" font-family="HoeflerText-Regular,Hoefler Text" font-size="40.0" fill="#56554A" transform="matrix(1.00, 0.00, -0.00, -1.00, 237.4, 476.2)"> </text><text xml:space="preserve" font-family="HoeflerText-Regular,Hoefler Text" font-size="40.0" fill="#56554A" transform="matrix(1.00, 0.00, -0.00, -1.00, 247.4, 476.2)">y</text><text xml:space="preserve" font-family="HoeflerText-Regular,Hoefler Text" font-size="40.0" fill="#56554A" transform="matrix(1.00, 0.00, -0.00, -1.00, 265.7, 476.2)">o</text><text xml:space="preserve" font-family="HoeflerText-Regular,Hoefler Text" font-size="40.0" fill="#56554A" transform="matrix(1.00, 0.00, -0.00, -1.00, 287.1, 476.2)">u</text><text xml:space="preserve" font-family="HoeflerText-Regular,Hoefler Text" font-size="40.0" fill="#56554A" transform="matrix(1.00, 0.00, -0.00, -1.00, 308.0, 476.2)">t</text><text xml:space="preserve" font-family="HoeflerText-Regular,Hoefler Text" font-size="40.0" fill="#56554A" transform="matrix(1.00, 0.00, -0.00, -1.00, 322.8, 476.2)">h</text><text xml:space="preserve" font-family="HoeflerText-Regular,Hoefler Text" font-size="40.0" fill="#56554A" transform="matrix(1.00, 0.00, -0.00, -1.00, 345.0, 476.2)"> </text><text xml:space="preserve" font-family="HoeflerText-Regular,Hoefler Text" font-size="40.0" fill="#56554A" transform="matrix(1.00, 0.00, -0.00, -1.00, 355.0, 476.2)">i</text><text xml:space="preserve" font-family="HoeflerText-Regular,Hoefler Text" font-size="40.0" fill="#56554A" transform="matrix(1.00, 0.00, -0.00, -1.00, 366.2, 476.2)">s</text><text xml:space="preserve" font-family="HoeflerText-Regular,Hoefler Text" font-size="40.0" fill="#56554A" transform="matrix(1.00, 0.00, -0.00, -1.00, 381.4, 476.2)"> </text><text xml:space="preserve" font-family="HoeflerText-Regular,Hoefler Text" font-size="40.0" fill="#56554A" transform="matrix(1.00, 0.00, -0.00, -1.00, 391.4, 476.2)">p</text><text xml:space="preserve" font-family="HoeflerText-Regular,Hoefler Text" font-size="40.0" fill="#56554A" transform="matrix(1.00, 0.00, -0.00, -1.00, 413.4, 476.2)">r</text><text xml:space="preserve" font-family="HoeflerText-Regular,Hoefler Text" font-size="40.0" fill="#56554A" transform="matrix(1.00, 0.00, -0.00, -1.00, 428.2, 476.2)">e</text><text xml:space="preserve" font-family="HoeflerText-Regular,Hoefler Text" font-size="40.0" fill="#56554A" transform="matrix(1.00, 0.00, -0.00, -1.00, 447.0, 476.2)">-</text><text xml:space="preserve" font-family="HoeflerText-Regular,Hoefler Text" font-size="40.0" fill="#56554A" transform="matrix(1.00, 0.00, -0.00, -1.00, 460.0, 476.2)">r</text><text xml:space="preserve" font-family="HoeflerText-Regular,Hoefler Text" font-size="40.0" fill="#56554A" transform="matrix(1.00, 0.00, -0.00, -1.00, 474.9, 476.2)">e</text><text xml:space="preserve" font-family="HoeflerText-Regular,Hoefler Text" font-size="40.0" fill="#56554A" transform="matrix(1.00, 0.00, -0.00, -1.00, 493.6, 476.2)">g</text><text xml:space="preserve" font-family="HoeflerText-Regular,Hoefler Text" font-size="40.0" fill="#56554A" transform="matrix(1.00, 0.00, -0.00, -1.00, 512.5, 476.2)">i</text><text xml:space="preserve" font-family="HoeflerText-Regular,Hoefler Text" font-size="40.0" fill="#56554A" transform="matrix(1.00, 0.00, -0.00, -1.00, 523.7, 476.2)">s</text><text xml:space="preserve" font-family="HoeflerText-Regular,Hoefler Text" font-size="40.0" fill="#56554A" transform="matrix(1.00, 0.00, -0.00, -1.00, 539.0, 476.2)">t</text><text xml:space="preserve" font-family="HoeflerText-Regular,Hoefler Text" font-size="40.0" fill="#56554A" transform="matrix(1.00, 0.00, -0.00, -1.00, 553.1, 476.2)">e</text><text xml:space="preserve" font-family="HoeflerText-Regular,Hoefler Text" font-size="40.0" fill="#56554A" transform="matrix(1.00, 0.00, -0.00, -1.00, 571.8, 476.2)">r</text><text xml:space="preserve" font-family="HoeflerText-Regular,Hoefler Text" font-size="40.0" fill="#56554A" transform="matrix(1.00, 0.00, -0.00, -1.00, 586.7, 476.2)">e</text><text xml:space="preserve" font-family="HoeflerText-Regular,Hoefler Text" font-size="40.0" fill="#56554A" transform="matrix(1.00, 0.00, -0.00, -1.00, 605.4, 476.2)">d</text><text xml:space="preserve" font-family="HoeflerText-Regular,Hoefler Text" font-size="40.0" fill="#56554A" transform="matrix(1.00, 0.00, -0.00, -1.00, 627.1, 476.2)"> </text><text xml:space="preserve" font-family="HoeflerText-Regular,Hoefler Text" font-size="40.0" fill="#56554A" transform="matrix(1.00, 0.00, -0.00, -1.00, 637.1, 476.2)">i</text><text xml:space="preserve" font-family="HoeflerText-Regular,Hoefler Text" font-size="40.0" fill="#56554A" transform="matrix(1.00, 0.00, -0.00, -1.00, 648.3, 476.2)">n</text><text xml:space="preserve" font-family="HoeflerText-Regular,Hoefler Text" font-size="40.0" fill="#56554A" transform="matrix(1.00, 0.00, -0.00, -1.00, 670.2, 476.2)"> </text><text xml:space="preserve" font-family="HoeflerText-Regular,Hoefler Text" font-size="40.0" fill="#56554A" transform="matrix(1.00, 0.00, -0.00, -1.00, 680.2, 476.2)">a</text><text xml:space="preserve" font-family="HoeflerText-Regular,Hoefler Text" font-size="40.0" fill="#56554A" transform="matrix(1.00, 0.00, -0.00, -1.00, 698.1, 476.2)"> </text><text xml:space="preserve" font-family="HoeflerText-Regular,Hoefler Text" font-size="40.0" fill="#56554A" transform="matrix(1.00, 0.00, -0.00, -1.00, 708.1, 476.2)">d</text><text xml:space="preserve" font-family="HoeflerText-Regular,Hoefler Text" font-size="40.0" fill="#56554A" transform="matrix(1.00, 0.00, -0.00, -1.00, 729.8, 476.2)">a</text><text xml:space="preserve" font-family="HoeflerText-Regular,Hoefler Text" font-size="40.0" fill="#56554A" transform="matrix(1.00, 0.00, -0.00, -1.00, 747.6, 476.2)">t</text><text xml:space="preserve" font-family="HoeflerText-Regular,Hoefler Text" font-size="40.0" fill="#56554A" transform="matrix(1.00, 0.00, -0.00, -1.00, 762.4, 476.2)">a</text><text xml:space="preserve" font-family="HoeflerText-Regular,Hoefler Text" font-size="40.0" fill="#56554A" transform="matrix(1.00, 0.00, -0.00, -1.00, 780.2, 476.2)">b</text><text xml:space="preserve" font-family="HoeflerText-Regular,Hoefler Text" font-size="40.0" fill="#56554A" transform="matrix(1.00, 0.00, -0.00, -1.00, 802.1, 476.2)">a</text><text xml:space="preserve" font-family="HoeflerText-Regular,Hoefler Text" font-size="40.0" fill="#56554A" transform="matrix(1.00, 0.00, -0.00, -1.00, 820.4, 476.2)">s</text><text xml:space="preserve" font-family="HoeflerText-Regular,Hoefler Text" font-size="40.0" fill="#56554A" transform="matrix(1.00, 0.00, -0.00, -1.00, 835.6, 476.2)">e</text><text xml:space="preserve" font-family="HoeflerText-Regular,Hoefler Text" font-size="40.0" fill="#56554A" transform="matrix(1.00, 0.00, -0.00, -1.00, 71.0, 368.4)">2</text><text xml:space="preserve" font-family="HoeflerText-Regular,Hoefler Text" font-size="40.0" fill="#56554A" transform="matrix(1.00, 0.00, -0.00, -1.00, 88.9, 368.4)">.</text><text xml:space="preserve" font-family="HoeflerText-Regular,Hoefler Text" font-size="40.0" fill="#56554A" transform="matrix(1.00, 0.00, -0.00, -1.00, 131.0, 368.4)">B</text><text xml:space="preserve" font-family="HoeflerText-Regular,Hoefler Text" font-size="40.0" fill="#56554A" transform="matrix(1.00, 0.00, -0.00, -1.00, 157.0, 368.4)">u</text><text xml:space="preserve" font-family="HoeflerText-Regular,Hoefler Text" font-size="40.0" fill="#56554A" transform="matrix(1.00, 0.00, -0.00, -1.00, 177.9, 368.4)">s</text><text xml:space="preserve" font-family="HoeflerText-Regular,Hoefler Text" font-size="40.0" fill="#56554A" transform="matrix(1.00, 0.00, -0.00, -1.00, 193.2, 368.4)">i</text><text xml:space="preserve" font-family="HoeflerText-Regular,Hoefler Text" font-size="40.0" fill="#56554A" transform="matrix(1.00, 0.00, -0.00, -1.00, 204.4, 368.4)">n</text><text xml:space="preserve" font-family="HoeflerText-Regular,Hoefler Text" font-size="40.0" fill="#56554A" transform="matrix(1.00, 0.00, -0.00, -1.00, 226.3, 368.4)">e</text><text xml:space="preserve" font-family="HoeflerText-Regular,Hoefler Text" font-size="40.0" fill="#56554A" transform="matrix(1.00, 0.00, -0.00, -1.00, 245.0, 368.4)">s</text><text xml:space="preserve" font-family="HoeflerText-Regular,Hoefler Text" font-size="40.0" fill="#56554A" transform="matrix(1.00, 0.00, -0.00, -1.00, 260.3, 368.4)">s</text><text xml:space="preserve" font-family="HoeflerText-Regular,Hoefler Text" font-size="40.0" fill="#56554A" transform="matrix(1.00, 0.00, -0.00, -1.00, 275.6, 368.4)">e</text><text xml:space="preserve" font-family="HoeflerText-Regular,Hoefler Text" font-size="40.0" fill="#56554A" transform="matrix(1.00, 0.00, -0.00, -1.00, 294.3, 368.4)">s</text><text xml:space="preserve" font-family="HoeflerText-Regular,Hoefler Text" font-size="40.0" fill="#56554A" transform="matrix(1.00, 0.00, -0.00, -1.00, 309.6, 368.4)"> </text><text xml:space="preserve" font-family="HoeflerText-Regular,Hoefler Text" font-size="40.0" fill="#56554A" transform="matrix(1.00, 0.00, -0.00, -1.00, 319.6, 368.4)">p</text><text xml:space="preserve" font-family="HoeflerText-Regular,Hoefler Text" font-size="40.0" fill="#56554A" transform="matrix(1.00, 0.00, -0.00, -1.00, 341.5, 368.4)">o</text><text xml:space="preserve" font-family="HoeflerText-Regular,Hoefler Text" font-size="40.0" fill="#56554A" transform="matrix(1.00, 0.00, -0.00, -1.00, 362.9, 368.4)">s</text><text xml:space="preserve" font-family="HoeflerText-Regular,Hoefler Text" font-size="40.0" fill="#56554A" transform="matrix(1.00, 0.00, -0.00, -1.00, 378.2, 368.4)">t</text><text xml:space="preserve" font-family="HoeflerText-Regular,Hoefler Text" font-size="40.0" fill="#56554A" transform="matrix(1.00, 0.00, -0.00, -1.00, 393.0, 368.4)"> </text><text xml:space="preserve" font-family="HoeflerText-Regular,Hoefler Text" font-size="40.0" fill="#56554A" transform="matrix(1.00, 0.00, -0.00, -1.00, 403.0, 368.4)">j</text><text xml:space="preserve" font-family="HoeflerText-Regular,Hoefler Text" font-size="40.0" fill="#56554A" transform="matrix(1.00, 0.00, -0.00, -1.00, 412.8, 368.4)">o</text><text xml:space="preserve" font-family="HoeflerText-Regular,Hoefler Text" font-size="40.0" fill="#56554A" transform="matrix(1.00, 0.00, -0.00, -1.00, 434.2, 368.4)">b</text><text xml:space="preserve" font-family="HoeflerText-Regular,Hoefler Text" font-size="40.0" fill="#56554A" transform="matrix(1.00, 0.00, -0.00, -1.00, 456.1, 368.4)">s</text><text xml:space="preserve" font-family="HoeflerText-Regular,Hoefler Text" font-size="40.0" fill="#56554A" transform="matrix(1.00, 0.00, -0.00, -1.00, 471.4, 368.4)">/</text><text xml:space="preserve" font-family="HoeflerText-Regular,Hoefler Text" font-size="40.0" fill="#56554A" transform="matrix(1.00, 0.00, -0.00, -1.00, 482.7, 368.4)">v</text><text xml:space="preserve" font-family="HoeflerText-Regular,Hoefler Text" font-size="40.0" fill="#56554A" transform="matrix(1.00, 0.00, -0.00, -1.00, 500.9, 368.4)">o</text><text xml:space="preserve" font-family="HoeflerText-Regular,Hoefler Text" font-size="40.0" fill="#56554A" transform="matrix(1.00, 0.00, -0.00, -1.00, 522.4, 368.4)">l</text><text xml:space="preserve" font-family="HoeflerText-Regular,Hoefler Text" font-size="40.0" fill="#56554A" transform="matrix(1.00, 0.00, -0.00, -1.00, 532.7, 368.4)">u</text><text xml:space="preserve" font-family="HoeflerText-Regular,Hoefler Text" font-size="40.0" fill="#56554A" transform="matrix(1.00, 0.00, -0.00, -1.00, 553.6, 368.4)">n</text><text xml:space="preserve" font-family="HoeflerText-Regular,Hoefler Text" font-size="40.0" fill="#56554A" transform="matrix(1.00, 0.00, -0.00, -1.00, 575.6, 368.4)">t</text><text xml:space="preserve" font-family="HoeflerText-Regular,Hoefler Text" font-size="40.0" fill="#56554A" transform="matrix(1.00, 0.00, -0.00, -1.00, 589.7, 368.4)">e</text><text xml:space="preserve" font-family="HoeflerText-Regular,Hoefler Text" font-size="40.0" fill="#56554A" transform="matrix(1.00, 0.00, -0.00, -1.00, 608.4, 368.4)">e</text><text xml:space="preserve" font-family="HoeflerText-Regular,Hoefler Text" font-size="40.0" fill="#56554A" transform="matrix(1.00, 0.00, -0.00, -1.00, 627.2, 368.4)">r</text><text xml:space="preserve" font-family="HoeflerText-Regular,Hoefler Text" font-size="40.0" fill="#56554A" transform="matrix(1.00, 0.00, -0.00, -1.00, 642.0, 368.4)"> </text><text xml:space="preserve" font-family="HoeflerText-Regular,Hoefler Text" font-size="40.0" fill="#56554A" transform="matrix(1.00, 0.00, -0.00, -1.00, 652.0, 368.4)">o</text><text xml:space="preserve" font-family="HoeflerText-Regular,Hoefler Text" font-size="40.0" fill="#56554A" transform="matrix(1.00, 0.00, -0.00, -1.00, 673.5, 368.4)">p</text><text xml:space="preserve" font-family="HoeflerText-Regular,Hoefler Text" font-size="40.0" fill="#56554A" transform="matrix(1.00, 0.00, -0.00, -1.00, 695.4, 368.4)">p</text><text xml:space="preserve" font-family="HoeflerText-Regular,Hoefler Text" font-size="40.0" fill="#56554A" transform="matrix(1.00, 0.00, -0.00, -1.00, 717.3, 368.4)">o</text><text xml:space="preserve" font-family="HoeflerText-Regular,Hoefler Text" font-size="40.0" fill="#56554A" transform="matrix(1.00, 0.00, -0.00, -1.00, 738.8, 368.4)">r</text><text xml:space="preserve" font-family="HoeflerText-Regular,Hoefler Text" font-size="40.0" fill="#56554A" transform="matrix(1.00, 0.00, -0.00, -1.00, 754.0, 368.4)">t</text><text xml:space="preserve" font-family="HoeflerText-Regular,Hoefler Text" font-size="40.0" fill="#56554A" transform="matrix(1.00, 0.00, -0.00, -1.00, 768.8, 368.4)">u</text><text xml:space="preserve" font-family="HoeflerText-Regular,Hoefler Text" font-size="40.0" fill="#56554A" transform="matrix(1.00, 0.00, -0.00, -1.00, 789.7, 368.4)">n</text><text xml:space="preserve" font-family="HoeflerText-Regular,Hoefler Text" font-size="40.0" fill="#56554A" transform="matrix(1.00, 0.00, -0.00, -1.00, 811.6, 368.4)">i</text><text xml:space="preserve" font-family="HoeflerText-Regular,Hoefler Text" font-size="40.0" fill="#56554A" transform="matrix(1.00, 0.00, -0.00, -1.00, 822.8, 368.4)">t</text><text xml:space="preserve" font-family="HoeflerText-Regular,Hoefler Text" font-size="40.0" fill="#56554A" transform="matrix(1.00, 0.00, -0.00, -1.00, 837.6, 368.4)">i</text><text xml:space="preserve" font-family="HoeflerText-Regular,Hoefler Text" font-size="40.0" fill="#56554A" transform="matrix(1.00, 0.00, -0.00, -1.00, 848.8, 368.4)">e</text><text xml:space="preserve" font-family="HoeflerText-Regular,Hoefler Text" font-size="40.0" fill="#56554A" transform="matrix(1.00, 0.00, -0.00, -1.00, 867.5, 368.4)">s</text><text xml:space="preserve" font-family="HoeflerText-Regular,Hoefler Text" font-size="40.0" fill="#56554A" transform="matrix(1.00, 0.00, -0.00, -1.00, 71.0, 260.6)">3</text><text xml:space="preserve" font-family="HoeflerText-Regular,Hoefler Text" font-size="40.0" fill="#56554A" transform="matrix(1.00, 0.00, -0.00, -1.00, 87.2, 260.6)">.</text><text xml:space="preserve" font-family="HoeflerText-Regular,Hoefler Text" font-size="40.0" fill="#56554A" transform="matrix(1.00, 0.00, -0.00, -1.00, 131.0, 260.6)">F</text><text xml:space="preserve" font-family="HoeflerText-Regular,Hoefler Text" font-size="40.0" fill="#56554A" transform="matrix(1.00, 0.00, -0.00, -1.00, 152.9, 260.6)">o</text><text xml:space="preserve" font-family="HoeflerText-Regular,Hoefler Text" font-size="40.0" fill="#56554A" transform="matrix(1.00, 0.00, -0.00, -1.00, 174.3, 260.6)">s</text><text xml:space="preserve" font-family="HoeflerText-Regular,Hoefler Text" font-size="40.0" fill="#56554A" transform="matrix(1.00, 0.00, -0.00, -1.00, 189.6, 260.6)">t</text><text xml:space="preserve" font-family="HoeflerText-Regular,Hoefler Text" font-size="40.0" fill="#56554A" transform="matrix(1.00, 0.00, -0.00, -1.00, 203.8, 260.6)">e</text><text xml:space="preserve" font-family="HoeflerText-Regular,Hoefler Text" font-size="40.0" fill="#56554A" transform="matrix(1.00, 0.00, -0.00, -1.00, 222.5, 260.6)">r</text><text xml:space="preserve" font-family="HoeflerText-Regular,Hoefler Text" font-size="40.0" fill="#56554A" transform="matrix(1.00, 0.00, -0.00, -1.00, 237.4, 260.6)"> </text><text xml:space="preserve" font-family="HoeflerText-Regular,Hoefler Text" font-size="40.0" fill="#56554A" transform="matrix(1.00, 0.00, -0.00, -1.00, 247.4, 260.6)">y</text><text xml:space="preserve" font-family="HoeflerText-Regular,Hoefler Text" font-size="40.0" fill="#56554A" transform="matrix(1.00, 0.00, -0.00, -1.00, 265.7, 260.6)">o</text><text xml:space="preserve" font-family="HoeflerText-Regular,Hoefler Text" font-size="40.0" fill="#56554A" transform="matrix(1.00, 0.00, -0.00, -1.00, 287.1, 260.6)">u</text><text xml:space="preserve" font-family="HoeflerText-Regular,Hoefler Text" font-size="40.0" fill="#56554A" transform="matrix(1.00, 0.00, -0.00, -1.00, 308.0, 260.6)">t</text><text xml:space="preserve" font-family="HoeflerText-Regular,Hoefler Text" font-size="40.0" fill="#56554A" transform="matrix(1.00, 0.00, -0.00, -1.00, 322.8, 260.6)">h</text><text xml:space="preserve" font-family="HoeflerText-Regular,Hoefler Text" font-size="40.0" fill="#56554A" transform="matrix(1.00, 0.00, -0.00, -1.00, 345.0, 260.6)"> </text><text xml:space="preserve" font-family="HoeflerText-Regular,Hoefler Text" font-size="40.0" fill="#56554A" transform="matrix(1.00, 0.00, -0.00, -1.00, 355.0, 260.6)">c</text><text xml:space="preserve" font-family="HoeflerText-Regular,Hoefler Text" font-size="40.0" fill="#56554A" transform="matrix(1.00, 0.00, -0.00, -1.00, 373.4, 260.6)">a</text><text xml:space="preserve" font-family="HoeflerText-Regular,Hoefler Text" font-size="40.0" fill="#56554A" transform="matrix(1.00, 0.00, -0.00, -1.00, 391.3, 260.6)">n</text><text xml:space="preserve" font-family="HoeflerText-Regular,Hoefler Text" font-size="40.0" fill="#56554A" transform="matrix(1.00, 0.00, -0.00, -1.00, 413.2, 260.6)"> </text><text xml:space="preserve" font-family="HoeflerText-Regular,Hoefler Text" font-size="40.0" fill="#56554A" transform="matrix(1.00, 0.00, -0.00, -1.00, 423.2, 260.6)">ﬁ</text><text xml:space="preserve" font-family="HoeflerText-Regular,Hoefler Text" font-size="40.0" fill="#56554A" transform="matrix(1.00, 0.00, -0.00, -1.00, 446.6, 260.6)">n</text><text xml:space="preserve" font-family="HoeflerText-Regular,Hoefler Text" font-size="40.0" fill="#56554A" transform="matrix(1.00, 0.00, -0.00, -1.00, 468.5, 260.6)">d</text><text xml:space="preserve" font-family="HoeflerText-Regular,Hoefler Text" font-size="40.0" fill="#56554A" transform="matrix(1.00, 0.00, -0.00, -1.00, 490.2, 260.6)"> </text><text xml:space="preserve" font-family="HoeflerText-Regular,Hoefler Text" font-size="40.0" fill="#56554A" transform="matrix(1.00, 0.00, -0.00, -1.00, 500.2, 260.6)">j</text><text xml:space="preserve" font-family="HoeflerText-Regular,Hoefler Text" font-size="40.0" fill="#56554A" transform="matrix(1.00, 0.00, -0.00, -1.00, 510.0, 260.6)">o</text><text xml:space="preserve" font-family="HoeflerText-Regular,Hoefler Text" font-size="40.0" fill="#56554A" transform="matrix(1.00, 0.00, -0.00, -1.00, 531.4, 260.6)">b</text><text xml:space="preserve" font-family="HoeflerText-Regular,Hoefler Text" font-size="40.0" fill="#56554A" transform="matrix(1.00, 0.00, -0.00, -1.00, 553.3, 260.6)">s</text><text xml:space="preserve" font-family="HoeflerText-Regular,Hoefler Text" font-size="40.0" fill="#56554A" transform="matrix(1.00, 0.00, -0.00, -1.00, 568.6, 260.6)"> </text><text xml:space="preserve" font-family="HoeflerText-Regular,Hoefler Text" font-size="40.0" fill="#56554A" transform="matrix(1.00, 0.00, -0.00, -1.00, 578.6, 260.6)">a</text><text xml:space="preserve" font-family="HoeflerText-Regular,Hoefler Text" font-size="40.0" fill="#56554A" transform="matrix(1.00, 0.00, -0.00, -1.00, 596.4, 260.6)">n</text><text xml:space="preserve" font-family="HoeflerText-Regular,Hoefler Text" font-size="40.0" fill="#56554A" transform="matrix(1.00, 0.00, -0.00, -1.00, 618.4, 260.6)">d</text><text xml:space="preserve" font-family="HoeflerText-Regular,Hoefler Text" font-size="40.0" fill="#56554A" transform="matrix(1.00, 0.00, -0.00, -1.00, 640.0, 260.6)"> </text><text xml:space="preserve" font-family="HoeflerText-Regular,Hoefler Text" font-size="40.0" fill="#56554A" transform="matrix(1.00, 0.00, -0.00, -1.00, 650.0, 260.6)">g</text><text xml:space="preserve" font-family="HoeflerText-Regular,Hoefler Text" font-size="40.0" fill="#56554A" transform="matrix(1.00, 0.00, -0.00, -1.00, 668.9, 260.6)">o</text><text xml:space="preserve" font-family="HoeflerText-Regular,Hoefler Text" font-size="40.0" fill="#56554A" transform="matrix(1.00, 0.00, -0.00, -1.00, 690.4, 260.6)"> </text><text xml:space="preserve" font-family="HoeflerText-Regular,Hoefler Text" font-size="40.0" fill="#56554A" transform="matrix(1.00, 0.00, -0.00, -1.00, 700.4, 260.6)">t</text><text xml:space="preserve" font-family="HoeflerText-Regular,Hoefler Text" font-size="40.0" fill="#56554A" transform="matrix(1.00, 0.00, -0.00, -1.00, 714.5, 260.6)">o</text><text xml:space="preserve" font-family="HoeflerText-Regular,Hoefler Text" font-size="40.0" fill="#56554A" transform="matrix(1.00, 0.00, -0.00, -1.00, 736.0, 260.6)"> </text><text xml:space="preserve" font-family="HoeflerText-Regular,Hoefler Text" font-size="40.0" fill="#56554A" transform="matrix(1.00, 0.00, -0.00, -1.00, 746.0, 260.6)">t</text><text xml:space="preserve" font-family="HoeflerText-Regular,Hoefler Text" font-size="40.0" fill="#56554A" transform="matrix(1.00, 0.00, -0.00, -1.00, 760.7, 260.6)">h</text><text xml:space="preserve" font-family="HoeflerText-Regular,Hoefler Text" font-size="40.0" fill="#56554A" transform="matrix(1.00, 0.00, -0.00, -1.00, 782.9, 260.6)">e</text><text xml:space="preserve" font-family="HoeflerText-Regular,Hoefler Text" font-size="40.0" fill="#56554A" transform="matrix(1.00, 0.00, -0.00, -1.00, 801.6, 260.6)">m</text><text xml:space="preserve" font-family="HoeflerText-Regular,Hoefler Text" font-size="40.0" fill="#56554A" transform="matrix(1.00, 0.00, -0.00, -1.00, 71.0, 152.8)">4</text><text xml:space="preserve" font-family="HoeflerText-Regular,Hoefler Text" font-size="40.0" fill="#56554A" transform="matrix(1.00, 0.00, -0.00, -1.00, 92.4, 152.8)">.</text><text xml:space="preserve" font-family="HoeflerText-Regular,Hoefler Text" font-size="40.0" fill="#56554A" transform="matrix(1.00, 0.00, -0.00, -1.00, 131.0, 152.8)">(</text><text xml:space="preserve" font-family="HoeflerText-Regular,Hoefler Text" font-size="40.0" fill="#56554A" transform="matrix(1.00, 0.00, -0.00, -1.00, 142.8, 152.8)">I</text><text xml:space="preserve" font-family="HoeflerText-Regular,Hoefler Text" font-size="40.0" fill="#56554A" transform="matrix(1.00, 0.00, -0.00, -1.00, 158.8, 152.8)">m</text><text xml:space="preserve" font-family="HoeflerText-Regular,Hoefler Text" font-size="40.0" fill="#56554A" transform="matrix(1.00, 0.00, -0.00, -1.00, 191.9, 152.8)">p</text><text xml:space="preserve" font-family="HoeflerText-Regular,Hoefler Text" font-size="40.0" fill="#56554A" transform="matrix(1.00, 0.00, -0.00, -1.00, 213.8, 152.8)">o</text><text xml:space="preserve" font-family="HoeflerText-Regular,Hoefler Text" font-size="40.0" fill="#56554A" transform="matrix(1.00, 0.00, -0.00, -1.00, 235.3, 152.8)">r</text><text xml:space="preserve" font-family="HoeflerText-Regular,Hoefler Text" font-size="40.0" fill="#56554A" transform="matrix(1.00, 0.00, -0.00, -1.00, 250.6, 152.8)">t</text><text xml:space="preserve" font-family="HoeflerText-Regular,Hoefler Text" font-size="40.0" fill="#56554A" transform="matrix(1.00, 0.00, -0.00, -1.00, 265.3, 152.8)">a</text><text xml:space="preserve" font-family="HoeflerText-Regular,Hoefler Text" font-size="40.0" fill="#56554A" transform="matrix(1.00, 0.00, -0.00, -1.00, 283.2, 152.8)">n</text><text xml:space="preserve" font-family="HoeflerText-Regular,Hoefler Text" font-size="40.0" fill="#56554A" transform="matrix(1.00, 0.00, -0.00, -1.00, 305.1, 152.8)">t</text><text xml:space="preserve" font-family="HoeflerText-Regular,Hoefler Text" font-size="40.0" fill="#56554A" transform="matrix(1.00, 0.00, -0.00, -1.00, 319.8, 152.8)">)</text><text xml:space="preserve" font-family="HoeflerText-Regular,Hoefler Text" font-size="40.0" fill="#56554A" transform="matrix(1.00, 0.00, -0.00, -1.00, 331.6, 152.8)"> </text><text xml:space="preserve" font-family="HoeflerText-Regular,Hoefler Text" font-size="40.0" fill="#56554A" transform="matrix(1.00, 0.00, -0.00, -1.00, 341.6, 152.8)">S</text><text xml:space="preserve" font-family="HoeflerText-Regular,Hoefler Text" font-size="40.0" fill="#56554A" transform="matrix(1.00, 0.00, -0.00, -1.00, 361.9, 152.8)">a</text><text xml:space="preserve" font-family="HoeflerText-Regular,Hoefler Text" font-size="40.0" fill="#56554A" transform="matrix(1.00, 0.00, -0.00, -1.00, 379.4, 152.8)">f</text><text xml:space="preserve" font-family="HoeflerText-Regular,Hoefler Text" font-size="40.0" fill="#56554A" transform="matrix(1.00, 0.00, -0.00, -1.00, 392.8, 152.8)">e</text><text xml:space="preserve" font-family="HoeflerText-Regular,Hoefler Text" font-size="40.0" fill="#56554A" transform="matrix(1.00, 0.00, -0.00, -1.00, 411.5, 152.8)">t</text><text xml:space="preserve" font-family="HoeflerText-Regular,Hoefler Text" font-size="40.0" fill="#56554A" transform="matrix(1.00, 0.00, -0.00, -1.00, 426.2, 152.8)">y</text><text xml:space="preserve" font-family="HoeflerText-Regular,Hoefler Text" font-size="40.0" fill="#56554A" transform="matrix(1.00, 0.00, -0.00, -1.00, 444.6, 152.8)"> </text><text xml:space="preserve" font-family="HoeflerText-Regular,Hoefler Text" font-size="40.0" fill="#56554A" transform="matrix(1.00, 0.00, -0.00, -1.00, 454.6, 152.8)">-</text><text xml:space="preserve" font-family="HoeflerText-Regular,Hoefler Text" font-size="40.0" fill="#56554A" transform="matrix(1.00, 0.00, -0.00, -1.00, 467.6, 152.8)"> </text><text xml:space="preserve" font-family="HoeflerText-Regular,Hoefler Text" font-size="40.0" fill="#56554A" transform="matrix(1.00, 0.00, -0.00, -1.00, 477.6, 152.8)">F</text><text xml:space="preserve" font-family="HoeflerText-Regular,Hoefler Text" font-size="40.0" fill="#56554A" transform="matrix(1.00, 0.00, -0.00, -1.00, 499.5, 152.8)">o</text><text xml:space="preserve" font-family="HoeflerText-Regular,Hoefler Text" font-size="40.0" fill="#56554A" transform="matrix(1.00, 0.00, -0.00, -1.00, 520.9, 152.8)">s</text><text xml:space="preserve" font-family="HoeflerText-Regular,Hoefler Text" font-size="40.0" fill="#56554A" transform="matrix(1.00, 0.00, -0.00, -1.00, 536.2, 152.8)">t</text><text xml:space="preserve" font-family="HoeflerText-Regular,Hoefler Text" font-size="40.0" fill="#56554A" transform="matrix(1.00, 0.00, -0.00, -1.00, 550.4, 152.8)">e</text><text xml:space="preserve" font-family="HoeflerText-Regular,Hoefler Text" font-size="40.0" fill="#56554A" transform="matrix(1.00, 0.00, -0.00, -1.00, 569.1, 152.8)">r</text><text xml:space="preserve" font-family="HoeflerText-Regular,Hoefler Text" font-size="40.0" fill="#56554A" transform="matrix(1.00, 0.00, -0.00, -1.00, 584.0, 152.8)"> </text><text xml:space="preserve" font-family="HoeflerText-Regular,Hoefler Text" font-size="40.0" fill="#56554A" transform="matrix(1.00, 0.00, -0.00, -1.00, 594.0, 152.8)">y</text><text xml:space="preserve" font-family="HoeflerText-Regular,Hoefler Text" font-size="40.0" fill="#56554A" transform="matrix(1.00, 0.00, -0.00, -1.00, 612.3, 152.8)">o</text><text xml:space="preserve" font-family="HoeflerText-Regular,Hoefler Text" font-size="40.0" fill="#56554A" transform="matrix(1.00, 0.00, -0.00, -1.00, 633.7, 152.8)">u</text><text xml:space="preserve" font-family="HoeflerText-Regular,Hoefler Text" font-size="40.0" fill="#56554A" transform="matrix(1.00, 0.00, -0.00, -1.00, 654.6, 152.8)">t</text><text xml:space="preserve" font-family="HoeflerText-Regular,Hoefler Text" font-size="40.0" fill="#56554A" transform="matrix(1.00, 0.00, -0.00, -1.00, 669.4, 152.8)">h</text><text xml:space="preserve" font-family="HoeflerText-Regular,Hoefler Text" font-size="40.0" fill="#56554A" transform="matrix(1.00, 0.00, -0.00, -1.00, 690.0, 152.8)">’</text><text xml:space="preserve" font-family="HoeflerText-Regular,Hoefler Text" font-size="40.0" fill="#56554A" transform="matrix(1.00, 0.00, -0.00, -1.00, 696.6, 152.8)">s</text><text xml:space="preserve" font-family="HoeflerText-Regular,Hoefler Text" font-size="40.0" fill="#56554A" transform="matrix(1.00, 0.00, -0.00, -1.00, 711.8, 152.8)"> </text><text xml:space="preserve" font-family="HoeflerText-Regular,Hoefler Text" font-size="40.0" fill="#56554A" transform="matrix(1.00, 0.00, -0.00, -1.00, 721.8, 152.8)">l</text><text xml:space="preserve" font-family="HoeflerText-Regular,Hoefler Text" font-size="40.0" fill="#56554A" transform="matrix(1.00, 0.00, -0.00, -1.00, 732.2, 152.8)">o</text><text xml:space="preserve" font-family="HoeflerText-Regular,Hoefler Text" font-size="40.0" fill="#56554A" transform="matrix(1.00, 0.00, -0.00, -1.00, 753.6, 152.8)">c</text><text xml:space="preserve" font-family="HoeflerText-Regular,Hoefler Text" font-size="40.0" fill="#56554A" transform="matrix(1.00, 0.00, -0.00, -1.00, 772.1, 152.8)">a</text><text xml:space="preserve" font-family="HoeflerText-Regular,Hoefler Text" font-size="40.0" fill="#56554A" transform="matrix(1.00, 0.00, -0.00, -1.00, 790.0, 152.8)">t</text><text xml:space="preserve" font-family="HoeflerText-Regular,Hoefler Text" font-size="40.0" fill="#56554A" transform="matrix(1.00, 0.00, -0.00, -1.00, 804.7, 152.8)">i</text><text xml:space="preserve" font-family="HoeflerText-Regular,Hoefler Text" font-size="40.0" fill="#56554A" transform="matrix(1.00, 0.00, -0.00, -1.00, 815.9, 152.8)">o</text><text xml:space="preserve" font-family="HoeflerText-Regular,Hoefler Text" font-size="40.0" fill="#56554A" transform="matrix(1.00, 0.00, -0.00, -1.00, 837.4, 152.8)">n</text><text xml:space="preserve" font-family="HoeflerText-Regular,Hoefler Text" font-size="40.0" fill="#56554A" transform="matrix(1.00, 0.00, -0.00, -1.00, 859.3, 152.8)"> </text><text xml:space="preserve" font-family="HoeflerText-Regular,Hoefler Text" font-size="40.0" fill="#56554A" transform="matrix(1.00, 0.00, -0.00, -1.00, 869.3, 152.8)">i</text><text xml:space="preserve" font-family="HoeflerText-Regular,Hoefler Text" font-size="40.0" fill="#56554A" transform="matrix(1.00, 0.00, -0.00, -1.00, 880.5, 152.8)">s</text><text xml:space="preserve" font-family="HoeflerText-Regular,Hoefler Text" font-size="40.0" fill="#56554A" transform="matrix(1.00, 0.00, -0.00, -1.00, 895.8, 152.8)"> </text><text xml:space="preserve" font-family="HoeflerText-Regular,Hoefler Text" font-size="40.0" fill="#56554A" transform="matrix(1.00, 0.00, -0.00, -1.00, 131.0, 100.0)">t</text><text xml:space="preserve" font-family="HoeflerText-Regular,Hoefler Text" font-size="40.0" fill="#56554A" transform="matrix(1.00, 0.00, -0.00, -1.00, 145.8, 100.0)">r</text><text xml:space="preserve" font-family="HoeflerText-Regular,Hoefler Text" font-size="40.0" fill="#56554A" transform="matrix(1.00, 0.00, -0.00, -1.00, 160.6, 100.0)">a</text><text xml:space="preserve" font-family="HoeflerText-Regular,Hoefler Text" font-size="40.0" fill="#56554A" transform="matrix(1.00, 0.00, -0.00, -1.00, 178.5, 100.0)">c</text><text xml:space="preserve" font-family="HoeflerText-Regular,Hoefler Text" font-size="40.0" fill="#56554A" transform="matrix(1.00, 0.00, -0.00, -1.00, 197.0, 100.0)">k</text><text xml:space="preserve" font-family="HoeflerText-Regular,Hoefler Text" font-size="40.0" fill="#56554A" transform="matrix(1.00, 0.00, -0.00, -1.00, 217.4, 100.0)">e</text><text xml:space="preserve" font-family="HoeflerText-Regular,Hoefler Text" font-size="40.0" fill="#56554A" transform="matrix(1.00, 0.00, -0.00, -1.00, 236.2, 100.0)">d</text><text xml:space="preserve" font-family="HoeflerText-Regular,Hoefler Text" font-size="40.0" fill="#56554A" transform="matrix(1.00, 0.00, -0.00, -1.00, 257.8, 100.0)"> </text><text xml:space="preserve" font-family="HoeflerText-Regular,Hoefler Text" font-size="40.0" fill="#56554A" transform="matrix(1.00, 0.00, -0.00, -1.00, 267.8, 100.0)">w</text><text xml:space="preserve" font-family="HoeflerText-Regular,Hoefler Text" font-size="40.0" fill="#56554A" transform="matrix(1.00, 0.00, -0.00, -1.00, 295.8, 100.0)">h</text><text xml:space="preserve" font-family="HoeflerText-Regular,Hoefler Text" font-size="40.0" fill="#56554A" transform="matrix(1.00, 0.00, -0.00, -1.00, 318.0, 100.0)">i</text><text xml:space="preserve" font-family="HoeflerText-Regular,Hoefler Text" font-size="40.0" fill="#56554A" transform="matrix(1.00, 0.00, -0.00, -1.00, 329.2, 100.0)">l</text><text xml:space="preserve" font-family="HoeflerText-Regular,Hoefler Text" font-size="40.0" fill="#56554A" transform="matrix(1.00, 0.00, -0.00, -1.00, 339.5, 100.0)">e</text><text xml:space="preserve" font-family="HoeflerText-Regular,Hoefler Text" font-size="40.0" fill="#56554A" transform="matrix(1.00, 0.00, -0.00, -1.00, 358.2, 100.0)"> </text><text xml:space="preserve" font-family="HoeflerText-Regular,Hoefler Text" font-size="40.0" fill="#56554A" transform="matrix(1.00, 0.00, -0.00, -1.00, 368.2, 100.0)">a</text><text xml:space="preserve" font-family="HoeflerText-Regular,Hoefler Text" font-size="40.0" fill="#56554A" transform="matrix(1.00, 0.00, -0.00, -1.00, 386.1, 100.0)">t</text><text xml:space="preserve" font-family="HoeflerText-Regular,Hoefler Text" font-size="40.0" fill="#56554A" transform="matrix(1.00, 0.00, -0.00, -1.00, 400.8, 100.0)"> </text><text xml:space="preserve" font-family="HoeflerText-Regular,Hoefler Text" font-size="40.0" fill="#56554A" transform="matrix(1.00, 0.00, -0.00, -1.00, 410.8, 100.0)">j</text><text xml:space="preserve" font-family="HoeflerText-Regular,Hoefler Text" font-size="40.0" fill="#56554A" transform="matrix(1.00, 0.00, -0.00, -1.00, 420.6, 100.0)">o</text><text xml:space="preserve" font-family="HoeflerText-Regular,Hoefler Text" font-size="40.0" fill="#56554A" transform="matrix(1.00, 0.00, -0.00, -1.00, 442.1, 100.0)">b</text><text xml:space="preserve" font-family="HoeflerText-Regular,Hoefler Text" font-size="40.0" fill="#56554A" transform="matrix(1.00, 0.00, -0.00, -1.00, 464.0, 100.0)">.</text></g></svg>